# xmcd
#
# Track frame offsets: 
#        150
#        13750
#        26775
#        38567
#        55106
#        68754
#        81048
#        98345
#        112211
#        123803
#        134964
#        154788
#
# Disc length: 2285 seconds
#
# Revision: 0
# Processed by: cddbd v1.5.2PL0 Copyright (c) Steve Scherf et al.
# Submitted via: ExactAudioCopyFreeDBPlugin 1.0
#
DISCID=9908eb0c
DTITLE=Eilen Jewell - Down Hearted Blues
DYEAR=2017
DGENRE=Americana
TTITLE0=It's Your Voodoo Working
TTITLE1=Another Night To Cry
TTITLE2=You'll Be Mine
TTITLE3=Down Hearted Blues
TTITLE4=I'm A Little Mixed Up
TTITLE5=You Gonna Miss Me
TTITLE6=Walking With Frankie
TTITLE7=Nothing In Rambling
TTITLE8=Don't Leave Poor Me
TTITLE9=Crazy Mixed Up World
TTITLE10=You Know My Love
TTITLE11=The Poor Girl's Story
EXTD=
EXTT0=
EXTT1=
EXTT2=
EXTT3=
EXTT4=
EXTT5=
EXTT6=
EXTT7=
EXTT8=
EXTT9=
EXTT10=
EXTT11=
PLAYORDER=
